<svg width="70" height="44" viewBox="0 0 70 44" fill="none" xmlns="http://www.w3.org/2000/svg">
<path d="M55.3248 19.7632C55.3664 19.3911 55.4194 19.044 55.4421 18.6969C55.48 18.1638 55.4118 17.6414 55.2792 17.1225C55.1278 16.5393 54.8398 16.024 54.408 15.5875C53.8777 15.0544 53.2224 14.7323 52.4497 14.6214C51.7792 14.5248 51.1239 14.5713 50.4799 14.7574C49.658 14.9935 48.9761 15.4336 48.4118 16.0455C47.4762 17.0653 46.8777 18.2425 46.5519 19.5521C46.4458 19.9814 46.389 20.4144 46.3587 20.8545C46.336 21.1909 46.3284 21.52 46.3625 21.8528C46.4421 22.6292 46.7261 23.3198 47.2527 23.9245C47.8625 24.6258 48.6655 24.905 49.5974 24.9336C50.4534 24.9586 51.1997 24.6581 51.9043 24.2394C52.4345 23.9281 52.9118 23.5489 53.3626 23.1481C54.1732 22.4253 54.9194 21.6417 55.658 20.8545C55.9952 20.4931 56.3399 20.1424 56.6808 19.7811C57.2414 19.1907 57.8096 18.611 58.3551 18.0099C59.0482 17.2478 59.8853 16.7003 60.8891 16.3819C61.268 16.2638 61.6581 16.2173 62.0596 16.1958C62.5899 16.1636 63.1089 16.2101 63.6165 16.3604C64.7074 16.6824 65.4536 17.3694 65.9006 18.3462C66.1771 18.9509 66.3021 19.5914 66.3324 20.2462C66.3438 20.4967 66.3779 20.7508 66.3703 21.0012C66.34 22.2106 66.1089 23.3806 65.5029 24.4649C65.0066 25.3486 64.374 26.1215 63.518 26.7226C62.8323 27.2057 62.0748 27.5098 61.2225 27.61C60.5785 27.6851 59.9497 27.6565 59.3248 27.5027C58.7225 27.3524 58.1884 27.0769 57.7414 26.6618C57.6315 26.5616 57.5255 26.4579 57.3816 26.3255C56.9725 28.1753 56.571 29.9859 56.1694 31.8C55.1126 31.8 54.0861 31.8 53.0406 31.8C53.1126 31.4743 53.1808 31.156 53.249 30.8375C53.4497 29.9143 53.6543 28.9876 53.855 28.0644C53.8891 27.9106 53.9497 27.7782 54.0671 27.6601C54.73 26.9838 55.3815 26.2968 56.0331 25.6134C56.6618 24.9551 57.2906 24.2931 57.9422 23.6097C57.9725 23.6776 57.999 23.7313 58.0217 23.7886C58.2149 24.2788 58.4839 24.7153 58.9346 25.0374C59.5899 25.5061 60.2983 25.5454 61.0369 25.2449C61.6846 24.9837 62.1316 24.5149 62.4536 23.9353C62.8854 23.1624 63.1506 22.3394 63.2756 21.4771C63.3551 20.9332 63.3437 20.3893 63.1884 19.8526C63.0824 19.4877 62.643 19.1513 62.2415 19.1227C61.7642 19.0869 61.3437 19.2372 60.9384 19.4555C60.4422 19.7274 60.0028 20.0709 59.5861 20.4359C58.8664 21.0728 58.2376 21.7884 57.6391 22.5255C57.0028 23.3091 56.3702 24.0927 55.7073 24.8548C55.2263 25.4095 54.7225 25.9462 54.1391 26.4149C53.7716 26.7083 53.3701 26.9373 52.9194 27.0948C52.1467 27.3631 51.3549 27.5599 50.533 27.5993C50.0936 27.6208 49.6542 27.6529 49.2148 27.6351C47.7261 27.5742 46.3777 27.1556 45.2299 26.2109C44.3246 25.4667 43.7564 24.5435 43.4306 23.4666C43.2033 22.7187 43.086 21.953 43.1201 21.173C43.1579 20.4001 43.2715 19.6344 43.4723 18.883C43.6882 18.0672 43.9685 17.2692 44.3663 16.5178C44.8625 15.5839 45.4874 14.7359 46.3133 14.0346C47.4118 13.0971 48.6769 12.4638 50.1353 12.1847C50.5822 12.0988 51.0368 12.0631 51.4913 12.0237C51.9875 11.9772 52.4762 12.0058 52.9648 12.0523C54.2565 12.174 55.427 12.5855 56.4346 13.3834C57.427 14.1706 58.0634 15.1617 58.4119 16.3318C58.4422 16.4391 58.427 16.5142 58.3475 16.5965C57.8361 17.1261 57.3247 17.6592 56.8171 18.1924C56.3778 18.654 55.9421 19.1155 55.5028 19.5735C55.4611 19.6451 55.4005 19.6952 55.3248 19.7632Z" fill="#C8C8C8"/>
<path fill-rule="evenodd" clip-rule="evenodd" d="M5.97397 12.0024H5.66081C4.80039 15.9269 3.94218 19.8282 3.0845 23.727C2.80915 24.9787 2.53385 26.2302 2.25855 27.4821C2.256 27.4967 2.25682 27.5129 2.25767 27.5297C2.25811 27.5383 2.25855 27.547 2.25855 27.5557C2.26025 27.5606 2.26119 27.5648 2.26206 27.5685C2.26316 27.5733 2.26411 27.5775 2.26628 27.5816C2.26822 27.5835 2.27111 27.5852 2.27546 27.5881C2.27981 27.5908 2.28561 27.5944 2.29335 27.6H5.59509C5.79737 26.7058 5.99494 25.8132 6.1924 24.9211C6.43272 23.8352 6.67288 22.7501 6.9212 21.6639H7.26916C7.74853 21.6594 8.2279 21.6539 8.70726 21.6482C9.42642 21.6398 10.1456 21.6314 10.8648 21.627C11.5452 21.6233 12.2179 21.546 12.8829 21.4132C13.6484 21.2585 14.3714 21.0153 15.0132 20.5732C15.7748 20.0462 16.3238 19.3609 16.7182 18.5539C17.2478 17.4669 17.4604 16.3357 17.2788 15.1455C17.043 13.5905 15.9565 12.5109 14.3443 12.1866C13.5943 12.0356 12.8404 12.0098 12.0825 12.0061C10.6301 11.9982 9.17562 11.9997 7.72058 12.0012C7.13844 12.0018 6.5562 12.0024 5.97397 12.0024ZM7.79496 19.0919H7.45473C7.58107 18.5199 7.70581 17.9561 7.82956 17.3968C8.03903 16.45 8.24562 15.5162 8.45221 14.578C8.48989 14.5767 8.52592 14.5748 8.56075 14.5729C8.61884 14.5699 8.67353 14.567 8.72671 14.567C8.97028 14.567 9.21386 14.566 9.45743 14.565C10.0258 14.5627 10.5941 14.5604 11.1624 14.5707C11.6264 14.578 12.0941 14.6112 12.5581 14.6554C13.5595 14.7476 14.0853 15.455 13.9809 16.4241C13.834 17.7875 12.763 18.7197 11.4872 18.9003C10.973 18.974 10.4549 19.0219 9.93687 19.0477C9.4598 19.0698 8.98449 19.0755 8.5086 19.0812C8.27096 19.0841 8.03317 19.087 7.79496 19.0919Z" fill="#ACACAC"/>
<path fill-rule="evenodd" clip-rule="evenodd" d="M19.2544 18.0295C18.9656 18.4025 18.7471 18.8074 18.5917 19.2834C19.4906 19.36 20.3714 19.4309 21.2451 19.5012C21.3431 19.5091 21.4409 19.517 21.5388 19.5249C21.5453 19.5107 21.5514 19.4972 21.5575 19.4842C21.5889 19.4156 21.6138 19.3614 21.6387 19.3047C21.8498 18.8251 22.2163 18.5197 22.7383 18.3776C23.1382 18.271 23.5455 18.2639 23.9453 18.3208C24.1563 18.3527 24.3748 18.4273 24.5599 18.5303C24.8857 18.7115 25.0671 18.9956 25.0746 19.3686C25.0819 19.6634 25.0153 19.944 24.9413 20.2282C24.9116 20.3561 24.8376 20.42 24.708 20.4449C24.5802 20.4671 24.4528 20.4926 24.3255 20.5181C24.1061 20.5621 23.8865 20.6061 23.664 20.6331C23.1377 20.6951 22.6098 20.7474 22.0813 20.7998C21.8215 20.8255 21.5617 20.8513 21.3018 20.8782C20.6984 20.9421 20.106 21.0665 19.5321 21.2654C18.4843 21.6313 17.7845 22.3168 17.4883 23.3539C17.3217 23.9258 17.3032 24.5048 17.4069 25.0873C17.5735 26.0321 18.0955 26.7461 18.9656 27.215C19.7394 27.6341 20.5724 27.6768 21.424 27.5063C22.2978 27.3286 23.0493 26.9273 23.6825 26.3234C23.7109 26.2962 23.7393 26.2696 23.7705 26.2404C23.8083 26.2051 23.8502 26.1661 23.9009 26.1174C23.9203 26.2319 23.9362 26.3437 23.9516 26.4529C23.9952 26.7606 24.0359 27.048 24.1452 27.318C24.5266 27.3642 26.9035 27.35 27.085 27.2967C27.0785 27.2719 27.0728 27.2479 27.0671 27.2241C27.0597 27.1934 27.0526 27.1634 27.0443 27.1333C26.8295 26.366 26.7962 25.5846 26.9517 24.8032C27.0439 24.3409 27.143 23.8797 27.242 23.419C27.3217 23.0478 27.4014 22.677 27.4774 22.3061C27.5323 22.0358 27.5937 21.767 27.655 21.4982C27.8169 20.7883 27.9787 20.079 28.0216 19.3473C28.055 18.8074 27.9699 18.2959 27.6847 17.827C27.233 17.0776 26.537 16.6371 25.6818 16.4098C25.093 16.2535 24.4895 16.2038 23.8787 16.2002C23.2455 16.1967 22.6162 16.2286 21.9942 16.3636C20.876 16.6087 19.9467 17.1415 19.2544 18.0295ZM24.1647 22.3298C24.2619 22.3142 24.3641 22.2977 24.4747 22.2812C24.4658 22.3307 24.4586 22.3752 24.4519 22.4165C24.4394 22.494 24.4288 22.5596 24.4119 22.6222C24.3799 22.735 24.3493 22.8484 24.3188 22.9617C24.2397 23.2553 24.1606 23.549 24.0564 23.8334C23.7306 24.7179 23.0234 25.1762 22.0942 25.3573C21.809 25.4141 21.5277 25.4248 21.2426 25.3573C20.7317 25.2365 20.3688 24.9452 20.2651 24.448C20.1615 23.9543 20.2615 23.4961 20.7761 23.148C21.0908 22.9348 21.4536 22.8247 21.8202 22.7288C22.4381 22.5687 23.0698 22.4837 23.7019 22.3987C23.7288 22.395 23.7556 22.3915 23.7824 22.3878C23.9067 22.3714 24.031 22.3513 24.1647 22.3298Z" fill="#ACACAC"/>
<path d="M1.52899 30.5988L1 32.9999L29.1706 31.7975L30.5429 29.3999L1.52899 30.5988Z" fill="#ACACAC"/>
<path d="M42.2419 16.2036C41.3201 16.2036 40.3946 16.2072 39.4728 16.2C39.293 16.2 39.2031 16.2579 39.1168 16.4062C38.3487 17.7958 37.573 19.1817 36.7974 20.5677C36.0742 21.8523 35.396 23.155 34.8901 24.5373C34.879 24.5699 34.8489 24.5988 34.8115 24.6531C34.714 23.2165 34.5005 21.8233 34.3056 20.4265C34.1107 19.0261 33.9084 17.6221 33.7098 16.2217C32.6719 16.2217 31.6677 16.2217 30.656 16.2217C30.6522 16.2687 30.6447 16.3013 30.6484 16.3302C30.8246 17.3109 31.0044 18.2952 31.1806 19.2758C31.3417 20.1769 31.5065 21.0779 31.6677 21.9789C31.8475 22.9777 32.0274 23.9764 32.2072 24.9752C32.3384 25.7062 32.597 27.1681 32.597 27.1681L29.9141 31.8C31.8588 31.8 33.0691 31.8 33.0691 31.8C33.0691 31.8 37.5393 24.74 38.6597 22.8149C39.9075 20.6726 41.1553 18.5304 42.403 16.3881C42.433 16.3411 42.4518 16.2868 42.4855 16.2144C42.3918 16.2108 42.3169 16.2036 42.2419 16.2036Z" fill="#ACACAC"/>
</svg>
