<svg width="70" height="44" viewBox="0 0 70 44" fill="none" xmlns="http://www.w3.org/2000/svg">
<g clip-path="url(#clip0_1_560)">
<path d="M68.7191 16.912C67.8272 16.3058 66.4771 16 64.7074 16H60.073L58.35 25.2791H52.2787L52.6689 23.1738H56.3262L56.7595 20.8094L53.1044 20.8146L53.4957 18.7187H57.2629L57.7641 16.0006H50.1138L48.4781 24.8023H45.6707L47.3174 16.0001H43.3183L41.6826 24.8018H38.9477L40.596 16.0001H36.599L34.8739 25.2791H28.759L29.1455 23.1739H32.8175L33.2514 20.8229L29.5829 20.8192L29.9721 18.7192H33.7815L34.2796 15.9999H10.4399L9.08302 23.3528L6.38079 15.9999H2.23165L-0.00146484 27.9999H3.961L5.31266 20.4442L7.93486 27.9999H22.136L23.8626 18.7181H26.0836L24.357 27.9999H61.723L62.8064 22.1408L64.5588 27.9999H68.5234L66.7074 23.2123L67.1229 23.1236C68.038 22.929 68.7517 22.5111 69.2487 21.8845C69.7452 21.2522 69.9981 20.4403 69.9981 19.4652C69.9981 18.3299 69.5795 17.4946 68.718 16.9113L68.7191 16.912ZM18.6878 25.2791H12.6223L13.0141 23.1738H16.8186L17.2499 20.8026H13.482L13.8449 18.7193H19.9016L18.6867 25.279L18.6878 25.2791ZM65.4525 21.2371C65.0538 21.5136 64.4758 21.6482 63.6854 21.6482H62.9017L63.5028 18.428H64.0793C64.7356 18.428 65.2142 18.5323 65.5445 18.7452C65.8022 18.9121 66.1088 19.2424 66.1088 19.8669C66.1079 20.6224 65.7512 21.0283 65.4514 21.237L65.4525 21.2371Z" fill="#C8C8C8"/>
</g>
<defs>
<clipPath id="clip0_1_560">
<rect width="70" height="12" fill="white" transform="translate(0 16)"/>
</clipPath>
</defs>
</svg>
