<svg width="70" height="44" viewBox="0 0 70 44" fill="none" xmlns="http://www.w3.org/2000/svg">
<g clip-path="url(#clip0_1_564)">
<path fill-rule="evenodd" clip-rule="evenodd" d="M4.03448 6.9939C2.92161 6.9939 2.01123 7.90586 2.01123 9.02068V9.93945H66.9883L66.9882 9.02068C66.9882 7.90586 66.0779 6.9939 64.9649 6.9939H4.03448ZM66.9883 34.0482H2.01123V34.9671C2.01123 36.0821 2.92161 36.994 4.03448 36.994H64.9649C66.0779 36.994 66.9882 36.0821 66.9882 34.9671L66.9883 34.0482Z" fill="#C8C8C8"/>
<path fill-rule="evenodd" clip-rule="evenodd" d="M57.0774 16.2009C54.1046 16.2009 51.6812 18.6289 51.6812 21.6069C51.6812 24.5839 54.1046 27.0122 57.0774 27.0122C60.0497 27.0122 62.4732 24.5839 62.4732 21.6069C62.4732 18.6289 60.0497 16.2009 57.0774 16.2009Z" fill="#ACACAC"/>
<path fill-rule="evenodd" clip-rule="evenodd" d="M12.6 16.2009C9.62685 16.2009 7.20312 18.6289 7.20312 21.6069C7.20312 24.5839 9.62685 27.0122 12.6 27.0122C15.5717 27.0122 17.9955 24.5839 17.9955 21.6069C17.9955 18.6289 15.5717 16.2009 12.6 16.2009Z" fill="#ACACAC"/>
<path fill-rule="evenodd" clip-rule="evenodd" d="M56.654 11.4434C51.6587 11.3284 49.3101 14.5372 45.9017 18.4949L42.6863 22.2277L47.7779 28.3337C48.9909 30.2098 46.6758 32.0717 45.2394 30.355L40.532 24.7298L35.9449 30.0567C34.4841 31.7524 32.1952 29.8581 33.4342 27.9996L38.4139 22.1987L35.1515 18.3001L37.2501 15.6964L40.568 19.689L43.428 16.3563C44.8313 14.7223 46.2625 12.5569 48.1174 11.4434H2.01123V32.5448H12.791C17.787 32.5448 20.055 29.5526 23.371 25.5175L26.5 21.7103L21.2683 15.7244C20.0135 13.8766 22.2846 11.9622 23.7604 13.6451L28.5954 19.1605L33.06 13.7286C34.481 11.9989 36.8124 13.8407 35.6168 15.7275L30.7717 21.6425L34.1233 25.4648L32.0115 27.9698L28.6756 24.2008L25.8934 27.5978C24.5278 29.2639 23.1455 31.3888 21.3164 32.5448H66.9883V11.4434H56.654ZM21.1246 21.6069C21.1246 26.3111 17.2956 30.1472 12.5999 30.1472C7.90307 30.1472 4.07404 26.3111 4.07404 21.6069C4.07404 16.902 7.90307 13.0662 12.5999 13.0662C17.2956 13.0662 21.1246 16.902 21.1246 21.6069ZM57.0775 30.1472C52.3815 30.1472 48.5516 26.3111 48.5516 21.6069C48.5516 16.902 52.3815 13.0662 57.0775 13.0662C61.7738 13.0662 65.6027 16.902 65.6027 21.6069C65.6027 26.3111 61.7738 30.1472 57.0775 30.1472Z" fill="#ACACAC"/>
</g>
<defs>
<clipPath id="clip0_1_564">
<rect width="65" height="30" fill="white" transform="translate(2 7)"/>
</clipPath>
</defs>
</svg>
