<svg width="70" height="44" viewBox="0 0 70 44" fill="none" xmlns="http://www.w3.org/2000/svg">
<g clip-path="url(#clip0_1_557)">
<path fill-rule="evenodd" clip-rule="evenodd" d="M50.5131 15.8932C52.0758 15.8932 53.3424 14.6117 53.3424 13.0314C53.3424 11.4501 52.0758 10.1674 50.5131 10.1674C48.9523 10.1674 47.6862 11.4501 47.6862 13.0314C47.6862 14.6117 48.9523 15.8932 50.5131 15.8932ZM28.8444 17.4387C28.7167 17.7634 27.7978 20.3907 25.5755 23.1138V11.4704L19.6543 12.6551V33.76H25.5755V27.2363C27.2905 29.84 28.1374 33.76 28.1374 33.76H35.2298C34.5282 30.8077 31.4594 25.364 31.4594 25.364C34.2136 21.8292 35.4234 18.0627 35.6158 17.4387H28.8444ZM44.411 17.2184C39.1074 17.3907 36.4152 19.7994 36.4152 24.5874V33.76H42.2012V26.28C42.2012 23.4129 42.572 22.184 45.933 22.0667V17.3024C45.3673 17.1809 44.411 17.2184 44.411 17.2184ZM9.72379 19.7627C8.99853 19.7144 7.31943 19.6046 7.31943 18.0744C7.31943 16.228 9.73686 16.228 10.6436 16.228C12.2379 16.228 14.3027 16.7049 15.7772 17.1514C15.7772 17.1514 16.5998 17.4449 17.2998 17.7455L17.3649 17.7634V12.7064L17.2755 12.6797C15.5353 12.0634 13.5118 11.4704 9.76026 11.4704C3.29189 11.4704 1 15.2849 1 18.5526C1 20.4363 1.7976 24.8695 9.20553 25.3809C9.83352 25.42 11.5002 25.5172 11.5002 27.0984C11.5002 28.404 10.1357 29.1738 7.84073 29.1738C5.32572 29.1738 2.8861 28.5246 1.40427 27.9089V33.1172C3.62261 33.7058 6.12333 34 9.05415 34C15.3787 34 18.2114 30.3911 18.2114 26.8141C18.2114 22.7584 15.0417 20.1234 9.72379 19.7627ZM47.6449 33.76H53.3841V17.4572H47.6449V33.76ZM64.1906 12.5098V33.76H69.9307V11.4704L64.1906 12.5098ZM55.8152 12.5098L61.5498 11.4704V33.76H55.8152V12.5098Z" fill="#C8C8C8"/>
</g>
<defs>
<clipPath id="clip0_1_557">
<rect width="69" height="24" fill="white" transform="translate(1 10)"/>
</clipPath>
</defs>
</svg>
