<svg width="59" height="44" viewBox="0 0 59 44" fill="none" xmlns="http://www.w3.org/2000/svg">
<path d="M25.2669 30.2542H20.7305L23.5679 13.7977H28.104L25.2669 30.2542Z" fill="#C7C7C7"/>
<path d="M41.7109 14.2005C40.8162 13.8675 39.397 13.4999 37.6422 13.4999C33.1623 13.4999 30.0077 15.7406 29.9883 18.9443C29.9511 21.3079 32.247 22.6207 33.9641 23.4088C35.7192 24.2141 36.3158 24.7398 36.3158 25.4576C36.2979 26.5601 34.8976 27.0682 33.5915 27.0682C31.7804 27.0682 30.8099 26.8062 29.3352 26.1929L28.7378 25.9299L28.103 29.6241C29.167 30.0787 31.1272 30.4822 33.1623 30.4999C37.9222 30.4999 41.0211 28.2938 41.0578 24.8798C41.0759 23.0065 39.8636 21.571 37.25 20.3981C35.6633 19.6451 34.6917 19.1374 34.6917 18.367C34.7103 17.6666 35.5135 16.9492 37.3045 16.9492C38.7793 16.9141 39.8629 17.2466 40.6837 17.5793L41.094 17.7541L41.7109 14.2005Z" fill="#C7C7C7"/>
<path d="M47.7407 24.4242C48.1143 23.4788 49.5518 19.8199 49.5518 19.8199C49.533 19.855 49.9247 18.857 50.1487 18.2443L50.4657 19.6623C50.4657 19.6623 51.3248 23.6015 51.5113 24.4242C50.8024 24.4242 48.6367 24.4242 47.7407 24.4242ZM53.3403 13.7977H49.8314C48.7494 13.7977 47.9273 14.0951 47.4604 15.1631L40.7222 30.2539H45.4821C45.4821 30.2539 46.2657 28.2228 46.4341 27.7854C46.9563 27.7854 51.5867 27.7854 52.2585 27.7854C52.3887 28.3631 52.7998 30.2539 52.7998 30.2539H57L53.3403 13.7977Z" fill="#C7C7C7"/>
<path d="M16.9417 13.7977L12.499 25.0195L12.0136 22.7436C11.1922 20.1175 8.61629 17.2643 5.7417 15.8456L9.81098 30.2367H14.6081L21.7385 13.7977H16.9417Z" fill="#C7C7C7"/>
<path d="M8.37328 13.7977H1.07467L1 14.1302C6.69337 15.4959 10.464 18.7877 12.0132 22.7443L10.4265 15.181C10.1653 14.13 9.36257 13.8324 8.37328 13.7977Z" fill="#C7C7C7"/>
</svg>
