<svg width="36" height="44" viewBox="0 0 36 44" fill="none" xmlns="http://www.w3.org/2000/svg">
<path d="M17.0693 30.5403C17.1514 30.6097 17.2393 30.6791 17.3257 30.747C15.6582 31.8557 13.6565 32.5 11.5074 32.5C5.70333 32.5014 1 27.8004 1 22.0007C1 16.2024 5.70333 11.5 11.506 11.5C13.6565 11.5 15.6582 12.1457 17.3214 13.2529C17.2364 13.3252 17.1514 13.3917 17.0877 13.4653C14.6 15.6133 13.1763 18.727 13.1763 22.0007C13.1763 25.273 14.5943 28.3867 17.0693 30.5403ZM24.494 11.5C22.3407 11.5 20.3417 12.1457 18.6786 13.2529C18.7636 13.3252 18.8486 13.3917 18.9123 13.4653C21.4 15.6133 22.8237 18.727 22.8237 22.0007C22.8237 25.2716 21.4057 28.3824 18.9307 30.5403C18.8486 30.6097 18.7607 30.6791 18.6743 30.747C20.3417 31.8557 22.3407 32.5 24.4926 32.5C30.2967 32.5014 35 27.8004 35 22.0007C35 16.2038 30.2967 11.5 24.494 11.5ZM18 13.7514C17.864 13.8576 17.7323 13.9638 17.6033 14.0785C15.3877 16.0027 13.9894 18.8361 13.9894 22.0007C13.9894 25.1668 15.3877 27.9987 17.6033 29.923C17.7308 30.0362 17.8654 30.1467 18 30.2515C18.136 30.1467 18.2677 30.0362 18.3967 29.923C20.6109 27.9987 22.0106 25.1668 22.0106 22.0007C22.0106 18.8361 20.6123 16.0027 18.3967 14.0785C18.2692 13.9652 18.136 13.8576 18 13.7514Z" fill="#C8C8C8"/>
</svg>
