<svg width="70" height="44" viewBox="0 0 70 44" fill="none" xmlns="http://www.w3.org/2000/svg">
<path d="M20.8789 23.63C19.7685 23.63 18.9885 22.896 18.9885 21.7501C18.9885 20.4819 19.9581 19.2916 21.3515 19.2916C22.4618 19.2916 23.2419 20.0592 23.2419 21.2052C23.2419 22.4736 22.2722 23.63 20.8789 23.63Z" fill="#C8C8C8"/>
<path d="M36.5742 21.7501C36.5742 22.896 37.3527 23.63 38.4631 23.63C39.858 23.63 40.8261 22.4736 40.8261 21.2052C40.8261 20.0592 40.0461 19.2916 38.9357 19.2916C37.5423 19.2916 36.5742 20.4819 36.5742 21.7501Z" fill="#C8C8C8"/>
<path d="M47.4655 21.2368H47.8463C48.7273 21.2368 49.3345 20.9117 49.3345 20.2725C49.3345 19.7346 48.9062 19.4878 48.0972 19.4878H47.7515L47.4655 21.2368Z" fill="#C8C8C8"/>
<path fill-rule="evenodd" clip-rule="evenodd" d="M0.137695 34.5665H65.1707L69.5048 8.36694H4.4722L0.137695 34.5665ZM13.4149 20.6202C12.4268 20.1155 12.202 19.9811 12.202 19.7121C12.202 19.3757 12.5935 19.2074 13.1411 19.2074C13.7697 19.2074 14.7195 19.2786 15.6494 20.1747C15.8804 19.4567 16.2551 18.8029 16.746 18.2399C15.4276 17.4914 14.2133 17.1001 13.0937 17.1001C10.8683 17.1001 9.59431 18.2997 9.59431 19.7457C9.59431 20.99 10.5227 21.6402 11.63 22.2117C12.618 22.7276 12.8673 22.8847 12.8673 23.1989C12.8673 23.5351 12.4513 23.7254 11.9038 23.7254C10.9509 23.7254 9.84359 23.1202 9.18896 22.5035L8.80811 24.8354C9.48724 25.3284 10.463 25.8327 11.9389 25.8327C14.2362 25.8327 15.4751 24.6673 15.4751 23.1652C15.4751 21.9428 14.6767 21.2704 13.4149 20.6202ZM21.5289 17.1001C18.6107 17.1001 16.4021 19.2694 16.4021 21.8613C16.4021 24.2086 18.2207 25.8333 20.7015 25.8333C23.6197 25.8333 25.8282 23.5966 25.8282 21.0047C25.8282 18.6577 24.0097 17.1001 21.5289 17.1001ZM33.9863 21.8613C33.9863 19.2694 36.1949 17.1001 39.1131 17.1001C41.5939 17.1001 43.414 18.6577 43.414 21.0047C43.414 23.5966 41.2039 25.8333 38.2857 25.8333C35.8049 25.8333 33.9863 24.2086 33.9863 21.8613ZM48.5973 17.2793C50.7874 17.2793 52.0003 18.2883 52.0003 19.8579C52.0003 21.1695 51.156 22.2343 49.7505 22.7277L51.6669 25.6539H48.6799L47.2988 23.0193H47.1795L46.7512 25.6539H44.145L45.5017 17.2793H48.5973ZM32.6861 20.9563H29.6348L29.8734 19.4878H33.1464C33.5701 18.6045 34.2263 17.8491 35.0446 17.2793H29.6883C28.4999 17.2793 27.4905 18.0963 27.3116 19.2022L26.2654 25.6539H28.8731L29.3014 23.0193H32.397L32.6203 21.5874C32.631 21.3734 32.6524 21.1631 32.6861 20.9563ZM52.0569 17.2793C52.7528 17.8188 53.1826 18.573 53.2744 19.4878H55.4538L54.4535 25.6539H57.0597L58.0616 19.4878H60.4766L60.8345 17.2793H52.0569Z" fill="#C8C8C8"/>
</svg>
