<svg width="70" height="52" viewBox="0 0 70 52" fill="none" xmlns="http://www.w3.org/2000/svg">
<g filter="url(#filter0_d_1_565)">
<path d="M43.1221 33.0551C43.7832 33.0551 44.3708 33.6427 44.3708 34.3038C44.3708 34.9649 43.8566 35.5526 43.1221 35.5526C42.461 35.5526 41.9468 34.9649 41.9468 34.3038C41.9468 33.6427 42.461 33.0551 43.1221 33.0551ZM43.1221 35.2587C43.6363 35.2587 44.077 34.818 44.077 34.3038C44.077 33.7162 43.6363 33.3489 43.1221 33.3489C42.6079 33.3489 42.1671 33.7896 42.1671 34.3038C42.1671 34.8914 42.6079 35.2587 43.1221 35.2587ZM42.9752 34.9649H42.7548V33.6427H43.1955C43.4893 33.6427 43.6363 33.7896 43.6363 34.0834C43.6363 34.3038 43.4893 34.4507 43.3424 34.4507L43.6363 34.9649H43.3424L43.0486 34.4507H42.9752V34.9649ZM43.1221 34.2303C43.269 34.2303 43.3424 34.1569 43.3424 34.01C43.3424 33.8631 43.269 33.7896 43.1221 33.7896H42.9752V34.1569H43.1221V34.2303Z" fill="#ACACAC"/>
<path d="M48.9981 23.7262C48.337 23.7262 47.8963 24.02 47.4556 24.3873L47.1617 24.828L47.0883 24.7546L47.4556 24.1669V23.7997H45.105V31.586H47.2352V26.6644C47.2352 25.8564 47.7494 25.636 48.1167 25.5626C48.4839 25.4891 48.9247 25.7095 48.9247 26.1502V31.586H51.0549V26.2237C51.0549 24.5342 50.3203 23.7262 48.9981 23.7262Z" fill="#ACACAC"/>
<path d="M25.2723 29.823H27.476V31.5125H23.1421V23.7262H25.2723V29.823Z" fill="#ACACAC"/>
<path d="M18 31.5125H22.3339V29.9699H20.1302V28.2805H22.3339V26.8113H20.1302V25.3422H22.3339V23.7262H18V31.5125Z" fill="#ACACAC"/>
<path d="M28.2104 31.5125H32.6178V29.9699H30.3407V28.2805H32.6178V26.8113H30.3407V25.3422H32.6178V23.7262H28.2104V31.5125Z" fill="#ACACAC"/>
<path d="M39.9634 31.5125H44.3707V29.9699H42.0936V28.2805H44.3707V26.8113H42.0936V25.3422H44.3707V23.7262H39.9634V31.5125Z" fill="#ACACAC"/>
<path d="M37.1717 23.7262L36.3637 28.6477L36.2902 29.5292V29.6027H36.2168V29.5292L36.1433 28.6477L35.3353 23.7262H33.2051L34.968 31.5125H37.6124L39.3754 23.7262H37.1717Z" fill="#ACACAC"/>
<path d="M45.6928 0H18V11.0184H32.6177C35.9232 6.24374 40.404 2.42404 45.6928 0Z" fill="#C8C8C8"/>
<path d="M29.0186 43.9999H40.0369V32.9816H29.0186V43.9999Z" fill="#ACACAC"/>
<path d="M51.0554 11.0184V0C40.5512 2.86477 32.3242 11.3122 29.8267 22.0367H41.0654C42.7549 17.1152 46.4277 13.1486 51.0554 11.0184Z" fill="#ACACAC"/>
</g>
<defs>
<filter id="filter0_d_1_565" x="-4" y="0" width="78" height="52" filterUnits="userSpaceOnUse" color-interpolation-filters="sRGB">
<feFlood flood-opacity="0" result="BackgroundImageFix"/>
<feColorMatrix in="SourceAlpha" type="matrix" values="0 0 0 0 0 0 0 0 0 0 0 0 0 0 0 0 0 0 127 0" result="hardAlpha"/>
<feOffset dy="4"/>
<feGaussianBlur stdDeviation="2"/>
<feComposite in2="hardAlpha" operator="out"/>
<feColorMatrix type="matrix" values="0 0 0 0 0 0 0 0 0 0 0 0 0 0 0 0 0 0 0.25 0"/>
<feBlend mode="normal" in2="BackgroundImageFix" result="effect1_dropShadow_1_565"/>
<feBlend mode="normal" in="SourceGraphic" in2="effect1_dropShadow_1_565" result="shape"/>
</filter>
</defs>
</svg>
