<svg width="68" height="25" viewBox="0 0 68 25" fill="none" xmlns="http://www.w3.org/2000/svg">
<path fill-rule="evenodd" clip-rule="evenodd" d="M16.8654 21.9194C18.9835 21.9194 21.2814 22.65 23.8256 24.9172C24.0805 25.1442 24.4198 24.8621 24.197 24.5799C21.6973 21.4048 19.3854 20.8004 17.0797 20.2897C14.2587 19.664 12.8084 18.0673 11.7974 16.3147C11.5965 15.9663 11.5058 16.0278 11.4878 16.4762C11.4651 17.0239 11.5034 17.7497 11.6254 18.4637C11.5113 18.4685 11.3971 18.4677 11.2814 18.4677C7.247 18.4677 3.97569 15.1767 3.97569 11.1173C3.97569 7.05876 7.247 3.76856 11.2822 3.76856C15.3166 3.76856 18.5879 7.05876 18.5879 11.1173C18.5879 11.4065 18.5738 11.6926 18.541 11.9724C18.0077 11.8754 16.9577 11.8644 16.2212 11.9282C15.9444 11.9527 15.9835 12.0827 16.193 12.1205C18.6082 12.5595 20.2665 14.0655 20.6465 16.7977C20.6543 16.8608 20.7372 16.8789 20.7693 16.8245C21.7962 15.101 22.3371 13.1278 22.3338 11.1173C22.3338 4.97825 17.3854 0 11.2822 0C5.17819 0 0.229797 4.97746 0.229797 11.1173C0.229797 17.258 5.17819 22.2362 11.2822 22.2362C12.9006 22.2362 14.5081 21.9194 16.8654 21.9194V21.9194ZM17.688 17.8829C18.1798 18.3006 18.3291 18.7979 18.0695 19.1486C17.9249 19.3408 17.6903 19.4472 17.4088 19.4472C17.1343 19.4473 16.8684 19.3502 16.6575 19.173C16.2103 18.7797 16.0789 18.143 16.3705 17.7813C16.4847 17.6394 16.67 17.5614 16.892 17.5614C17.1618 17.5614 17.4448 17.6757 17.688 17.8829V17.8829ZM19.9569 16.8206C20.0289 17.3076 19.8764 17.5094 19.7224 17.5094C19.5543 17.5094 19.3439 17.3124 19.0961 16.9223C18.8506 16.5377 18.7607 16.0964 18.8826 15.8733C18.9624 15.726 19.1305 15.6613 19.3424 15.7425C19.7529 15.8978 19.9131 16.5298 19.9569 16.8206V16.8206ZM35.2767 14.2751L34.0023 12.7329C33.9724 12.6965 33.9534 12.6523 33.9475 12.6055C33.9417 12.5586 33.9492 12.511 33.9693 12.4683C33.9893 12.4257 34.021 12.3896 34.0606 12.3644C34.1003 12.3393 34.1462 12.326 34.1931 12.3262H36.8584C36.9851 11.9464 37.057 11.5405 37.057 11.1181C37.057 9.18734 35.6278 7.52214 33.6669 7.52214C31.706 7.52214 30.2767 9.18734 30.2767 11.1181C30.2767 13.0489 31.706 14.6912 33.6669 14.6912C34.2611 14.6912 34.8052 14.5383 35.2775 14.2743L35.2767 14.2751ZM41.0422 16.8797C41.1805 17.0342 41.0672 17.2816 40.8584 17.2816H37.9499C37.8914 17.2817 37.8337 17.2688 37.7807 17.2439C37.7278 17.219 37.6809 17.1826 37.6434 17.1374L37.1508 16.5408C36.1135 17.2189 34.9033 17.5792 33.6669 17.5779C30.1258 17.5779 27.2454 14.6802 27.2454 11.1181C27.2454 7.55603 30.1258 4.65829 33.6669 4.65829C37.2079 4.65829 40.0883 7.55603 40.0883 11.1181C40.0883 12.4027 39.713 13.599 39.068 14.6061L41.0422 16.8797V16.8797ZM67.9139 4.95697H65.5394C65.4559 4.95718 65.3759 4.9907 65.3168 5.05022C65.2578 5.10974 65.2245 5.1904 65.2243 5.27456V16.964C65.2243 17.1398 65.3651 17.2816 65.5394 17.2816H67.9139C68.0883 17.2816 68.2298 17.1398 68.2298 16.964V5.27377C68.2298 5.18933 68.1965 5.10835 68.1373 5.04864C68.078 4.98894 67.9977 4.95539 67.9139 4.95539V4.95697ZM63.9186 4.95697H61.2634C61.196 4.95671 61.1302 4.97822 61.0758 5.01835C61.0213 5.05848 60.981 5.11513 60.9608 5.17999L58.8592 12.0882L56.5488 5.17211C56.5276 5.10902 56.4874 5.05422 56.4336 5.01547C56.3799 4.97672 56.3154 4.95598 56.2493 4.95618H54.3963C54.3302 4.95594 54.2656 4.97665 54.2117 5.01539C54.1578 5.05414 54.1174 5.10896 54.0961 5.17211L51.7865 12.0882L49.6848 5.17999C49.6648 5.11498 49.6246 5.05816 49.5701 5.01788C49.5156 4.9776 49.4498 4.95597 49.3823 4.95618H46.7263C46.6764 4.95627 46.6272 4.96823 46.5828 4.9911C46.5384 5.01397 46.4999 5.0471 46.4706 5.08779C46.4413 5.12809 46.422 5.1749 46.4144 5.22427C46.4068 5.27363 46.4111 5.32413 46.4268 5.3715L50.3283 17.0673C50.3713 17.1965 50.4925 17.2832 50.6278 17.2832H52.7357C52.8717 17.2832 52.9921 17.1965 53.0351 17.0681L55.3228 10.2347L57.6098 17.0673C57.6528 17.1965 57.774 17.2832 57.9092 17.2832H60.0179C60.154 17.2832 60.2744 17.1965 60.3174 17.0673L64.2189 5.3715C64.2346 5.32417 64.2389 5.27374 64.2314 5.22439C64.224 5.17505 64.2049 5.12822 64.1759 5.08779C64.1464 5.04704 64.1078 5.01388 64.0633 4.99101C64.0187 4.96814 63.9694 4.95621 63.9194 4.95618L63.9186 4.95697ZM45.4214 5.27456V16.964C45.4214 17.1398 45.2806 17.2816 45.1055 17.2816H42.7318C42.6481 17.2816 42.5679 17.2482 42.5087 17.1886C42.4495 17.1291 42.4161 17.0483 42.4159 16.964V5.27377C42.4159 5.09803 42.5566 4.95539 42.7318 4.95539H45.1055C45.2798 4.95539 45.4214 5.09725 45.4214 5.27377V5.27456Z" fill="#ACACAC"/>
</svg>
