<svg width="68" height="19" viewBox="0 0 68 19" fill="none" xmlns="http://www.w3.org/2000/svg">
<path fill-rule="evenodd" clip-rule="evenodd" d="M6.28818 0.00316524C6.89568 -0.000469075 8.70115 -0.163079 9.46591 2.41799C9.98106 4.15663 10.8017 7.00459 11.9277 10.9619H12.3863C13.5939 6.78983 14.4235 3.94186 14.875 2.41799C15.6477 -0.189965 17.5795 0.00321635 18.3523 0.00321635L24.3141 0.00322378V18.5486H18.2376V7.61951H17.8302L14.4429 18.5486H9.87116L6.48387 7.61141H6.0764V18.5486H0V0.00322378L6.28818 0.00316524ZM33.0396 0.00322378V10.9405H33.5244L37.6447 1.94685C38.4446 0.157094 40.1492 0.00322378 40.1492 0.00322378H46.0294V18.5487H39.8261V7.61141H39.3413L35.3018 16.605C34.502 18.3867 32.7165 18.5487 32.7165 18.5487H26.8363V0.00322378H33.0396ZM67.4708 8.81614C66.6055 11.2682 63.8881 13.0243 60.8796 13.0243H54.3742V18.5487H48.4752V8.81614H67.4708Z" fill="#ACACAC"/>
<path fill-rule="evenodd" clip-rule="evenodd" d="M61.1641 0.0032196H48.1659C48.4752 4.13207 52.0309 7.66663 55.7117 7.66663H67.8807C68.5829 4.23507 66.1654 0.0032196 61.1641 0.0032196Z" fill="#ACACAC"/>
</svg>
