<svg width="56" height="58" viewBox="0 0 56 58" fill="none" xmlns="http://www.w3.org/2000/svg">
<g filter="url(#filter0_d_7310_122656)">
<path d="M22.559 12.5212C22.7728 12.0726 22.4915 11.4924 21.9309 11.2252C21.3702 10.958 20.7424 11.105 20.5286 11.5536C20.3149 12.0021 20.5961 12.5823 21.1568 12.8495C21.7175 13.1167 22.3452 12.9697 22.559 12.5212Z" fill="white"/>
<path d="M4 14.146H51.9163V22.594H4V14.146Z" fill="#D376FF"/>
<path d="M12.5879 79.0001C11.7879 76.2001 9.92122 55.5001 9.08789 45.5001C9.75456 43.6668 11.1879 40.3001 11.5879 41.5001C12.0879 43.0001 20.5879 75.0001 20.5879 77.5001C20.5879 80.0001 13.5879 82.5001 12.5879 79.0001Z" fill="#FDD39D"/>
<path d="M42.0879 79.0001C42.8879 76.2001 44.7546 55.5001 45.5879 45.5001C44.9212 43.6668 43.4879 40.3001 43.0879 41.5001C42.5879 43.0001 34.0879 75.0001 34.0879 77.5001C34.0879 80.0001 41.0879 82.5001 42.0879 79.0001Z" fill="#FDD39D"/>
<path d="M8.29395 22.5938H47.6214V51.8906H8.29395V22.5938Z" fill="#F9BC40"/>
<path d="M47.6218 51.8914H8.29492V22.5933C18.3387 35.9129 31.9854 46.0792 47.6224 51.8907L47.6218 51.8914Z" fill="#F49D1A"/>
<path d="M47.6214 34.2984H31.1224V14.146H24.7936V34.2984H8.29395V40.187H24.7936V51.8914H31.1218V40.187L47.6214 40.1876V34.2984Z" fill="#F73A5A"/>
<path d="M47.6214 34.2984H31.1224V14.146H24.7936V34.2984H8.29395V40.187H24.7936V51.8914H31.1218V40.187L47.6214 40.1876V34.2984Z" fill="#2570ED"/>
<path d="M30.3257 51.8913H31.1221V43.6842C28.9209 42.2833 26.7836 40.7843 24.7168 39.1917C22.7159 37.6457 20.7835 36.013 18.9251 34.2983H8.29492V40.1869H24.7946V51.8913H30.3257Z" fill="#1A63DB"/>
<path d="M13.9822 44.6372C14.1313 45.3515 10.7328 46.4435 9.2055 46.5034C8.84503 46.5406 8.48162 46.4701 8.16121 46.3008C7.84122 46.0627 7.59943 45.7346 7.46672 45.3585C5.74386 41.4833 6.367 37.0182 7.02326 32.8283C7.03137 32.6122 7.11842 32.4066 7.26793 32.2504C7.36857 32.1905 7.48034 32.1517 7.59645 32.1363C7.71255 32.121 7.83057 32.1295 7.94331 32.1612C9.24306 32.3585 10.5154 32.7068 11.7344 33.1991C12.4896 33.4366 13.1403 33.9263 13.5776 34.5862C13.6021 34.6371 13.6151 34.6927 13.6159 34.7491C13.6167 34.8056 13.6052 34.8615 13.5821 34.9131C13.5591 34.9646 13.5251 35.0105 13.4825 35.0476C13.4399 35.0847 13.3897 35.112 13.3355 35.1277C11.624 35.6187 9.86308 35.917 8.08539 36.0172C9.75823 36.0567 11.4022 36.4614 12.9022 37.2029C13.2004 37.3508 13.5394 37.6031 13.4757 37.9293C13.4311 38.165 13.1934 38.3052 12.9787 38.4123C11.3858 39.2093 10.1402 39.3043 8.44219 39.842C10.6958 40.4282 14.5506 40.9322 13.8153 41.7618C12.5448 42.8946 10.4473 43.2253 8.61741 43.8147C8.95638 43.8886 13.8401 43.9574 13.9822 44.6372ZM42.8209 44.9813C42.6712 45.6955 46.0698 46.7876 47.5977 46.8475C47.9579 46.8846 48.3211 46.8141 48.6413 46.6449C48.9613 46.4068 49.2031 46.0787 49.3358 45.7025C51.0593 41.8274 50.4355 37.3622 49.7793 33.1723C49.7713 32.9563 49.6845 32.7507 49.5352 32.5944C49.4345 32.5344 49.3226 32.4956 49.2064 32.4803C49.0902 32.4649 48.972 32.4734 48.8592 32.5052C47.5594 32.7025 46.2872 33.0509 45.0682 33.5432C44.3132 33.7808 43.6627 34.2704 43.2255 34.9302C43.2011 34.9811 43.188 35.0367 43.1872 35.0932C43.1865 35.1496 43.198 35.2056 43.221 35.2571C43.2441 35.3087 43.2781 35.3546 43.3207 35.3917C43.3633 35.4287 43.4134 35.4561 43.4676 35.4718C45.1791 35.9628 46.9401 36.2611 48.7178 36.3613C47.0449 36.4008 45.4009 36.8055 43.9009 37.547C43.6021 37.6948 43.2638 37.9471 43.3268 38.2734C43.3714 38.5091 43.6091 38.6493 43.8238 38.7563C45.4167 39.5534 46.663 39.6483 48.3603 40.1861C46.1074 40.7723 42.2526 41.2763 42.9872 42.1058C44.2583 43.2387 46.3552 43.5694 48.1857 44.1587C47.8461 44.2326 42.963 44.3008 42.8209 44.9806V44.9813Z" fill="#FDD39D"/>
<mask id="mask0_7310_122656" style="mask-type:luminance" maskUnits="userSpaceOnUse" x="12" y="0" width="31" height="31">
<path d="M12.0156 -5.72205e-06H42.2803V30.2646H12.0156V-5.72205e-06Z" fill="white"/>
</mask>
<g mask="url(#mask0_7310_122656)">
<path d="M31.1288 29.4683C31.0242 29.4683 30.9206 29.4477 30.824 29.4077C30.7274 29.3677 30.6396 29.3089 30.5657 29.2349C28.6996 27.3696 25.5537 13.4567 25.5537 11.9466C25.5537 11.722 25.6342 10.603 27.2215 10.603C28.9043 10.603 31.9029 11.867 32.239 12.0111C32.3823 12.0724 32.5044 12.1745 32.5902 12.3046C32.676 12.4347 32.7217 12.5872 32.7217 12.7431C32.7217 13.929 36.2308 21.2912 38.9793 25.8723C39.0682 26.0201 39.1067 26.1928 39.0891 26.3643C39.0715 26.5359 38.9986 26.6971 38.8815 26.8237C38.7644 26.9503 38.6094 27.0355 38.4398 27.0664C38.2701 27.0974 38.095 27.0724 37.9407 26.9953L33.753 24.9015C33.4018 25.4789 33.0116 26.3892 32.6571 27.2159C32.3919 27.8356 32.1172 28.4759 31.8416 29.0278C31.7754 29.1602 31.6737 29.2716 31.5478 29.3494C31.4219 29.4272 31.2768 29.4683 31.1288 29.4683Z" fill="#B65BE1"/>
<path d="M22.3688 29.4683C22.2208 29.4681 22.0758 29.4269 21.9499 29.3491C21.824 29.2713 21.7223 29.1601 21.656 29.0278C21.3804 28.4759 21.1056 27.8356 20.8404 27.2159C20.486 26.3892 20.0957 25.4789 19.7445 24.9015L15.5568 26.9953C15.4026 27.0724 15.2275 27.0974 15.0578 27.0664C14.8881 27.0355 14.7331 26.9503 14.616 26.8237C14.4989 26.6971 14.4261 26.5359 14.4085 26.3643C14.3908 26.1928 14.4294 26.0201 14.5183 25.8723C17.2668 21.2912 20.7759 13.929 20.7759 12.7431C20.7759 12.4245 20.9655 12.1362 21.2585 12.0111C21.5946 11.867 24.5932 10.603 26.2761 10.603C27.8634 10.603 27.9439 11.722 27.9439 11.9466C27.9439 13.4567 24.7971 27.3696 22.9319 29.2349C22.7825 29.3843 22.58 29.4682 22.3688 29.4683Z" fill="#B65BE1"/>
<path d="M14.4043 3.73679V14.4879C14.4043 18.0711 23.4638 13.7711 26.3302 10.9039C29.1973 8.03676 26.28 6.60397 26.28 5.88717C26.28 5.17038 14.4043 -1.99677 14.4043 3.73679Z" fill="#B65BE1"/>
</g>
<mask id="mask1_7310_122656" style="mask-type:luminance" maskUnits="userSpaceOnUse" x="14" y="1" width="14" height="15">
<path d="M14.4043 3.73709V14.4874C14.4043 18.0706 23.4638 13.7706 26.3302 10.9042C29.1973 8.03705 26.28 6.60426 26.28 5.88747C26.28 5.37297 20.1538 1.53095 16.7012 1.53015C15.3465 1.53015 14.4043 2.12111 14.4043 3.73709Z" fill="white"/>
</mask>
<g mask="url(#mask1_7310_122656)">
<path d="M27.8636 10.1874C17.1125 10.1874 14.2461 14.4874 14.2461 15.9209C14.2461 17.3545 22.13 20.2217 24.2796 18.0705C26.43 15.9209 27.8636 10.1874 27.8636 10.1874Z" fill="#8638AA"/>
</g>
<mask id="mask2_7310_122656" style="mask-type:luminance" maskUnits="userSpaceOnUse" x="12" y="0" width="31" height="31">
<path d="M12.0156 -5.72205e-06H42.2803V30.2646H12.0156V-5.72205e-06Z" fill="white"/>
</mask>
<g mask="url(#mask2_7310_122656)">
<path d="M39.8909 3.73679V14.4879C39.8909 18.0711 31.138 13.7711 28.2709 10.9039C25.4045 8.03676 28.1681 6.60397 28.1681 5.88717C28.1681 5.17038 39.8909 -1.99677 39.8909 3.73679Z" fill="#B65BE1"/>
</g>
<mask id="mask3_7310_122656" style="mask-type:luminance" maskUnits="userSpaceOnUse" x="26" y="1" width="14" height="15">
<path d="M28.1492 5.88747C28.1492 6.60426 25.3657 8.03705 28.2329 10.9042C31.0993 13.7706 39.8911 18.0706 39.8911 14.4874V3.73709C39.8911 2.12111 38.9593 1.53015 37.6197 1.53015C34.2062 1.53095 28.1492 5.37297 28.1492 5.88747Z" fill="white"/>
</mask>
<g mask="url(#mask3_7310_122656)">
<path d="M26.9639 10.1879C37.715 10.1879 40.5822 14.4878 40.5822 15.9214C40.5822 17.355 32.6974 20.2222 30.5478 18.071C28.3975 15.9214 26.9639 10.1879 26.9639 10.1879Z" fill="#8638AA"/>
</g>
<mask id="mask4_7310_122656" style="mask-type:luminance" maskUnits="userSpaceOnUse" x="12" y="0" width="31" height="31">
<path d="M12.0156 -5.72205e-06H42.2803V30.2646H12.0156V-5.72205e-06Z" fill="white"/>
</mask>
<g mask="url(#mask4_7310_122656)">
<path d="M30.334 9.8755C30.334 10.6358 30.032 11.3649 29.4945 11.9026C28.9569 12.4403 28.2279 12.7425 27.4676 12.7427H26.0324C25.2721 12.7425 24.543 12.4403 24.0055 11.9026C23.468 11.3649 23.166 10.6358 23.166 9.8755V6.84824C23.166 6.08802 23.468 5.35895 24.0056 4.8214C24.5431 4.28385 25.2722 3.98185 26.0324 3.98185H27.4676C28.2278 3.98185 28.9569 4.28385 29.4944 4.8214C30.032 5.35895 30.334 6.08802 30.334 6.84824V9.8755Z" fill="#9E3ACD"/>
</g>
</g>
<defs>
<filter id="filter0_d_7310_122656" x="0" y="1.52979" width="55.916" height="87.1978" filterUnits="userSpaceOnUse" color-interpolation-filters="sRGB">
<feFlood flood-opacity="0" result="BackgroundImageFix"/>
<feColorMatrix in="SourceAlpha" type="matrix" values="0 0 0 0 0 0 0 0 0 0 0 0 0 0 0 0 0 0 127 0" result="hardAlpha"/>
<feOffset dy="4"/>
<feGaussianBlur stdDeviation="2"/>
<feComposite in2="hardAlpha" operator="out"/>
<feColorMatrix type="matrix" values="0 0 0 0 0.331793 0 0 0 0 0.375 0 0 0 0 0.0921875 0 0 0 0.3 0"/>
<feBlend mode="normal" in2="BackgroundImageFix" result="effect1_dropShadow_7310_122656"/>
<feBlend mode="normal" in="SourceGraphic" in2="effect1_dropShadow_7310_122656" result="shape"/>
</filter>
</defs>
</svg>
