<svg width="40" height="36" viewBox="0 0 40 36" fill="none" xmlns="http://www.w3.org/2000/svg">
<path d="M5.91231 9.97051C4.08341 15.4336 2.59668 20.1416 2.59668 20.1416H7.29285L7.82382 18.4897C8.1188 17.5811 9.14535 14.3835 10.1011 11.3746C11.0569 8.37759 11.871 5.92331 11.9064 5.92331C11.9654 5.92331 14.0303 12.5074 14.1601 13.0974C13.1572 13.0974 12.1792 13.1106 11.2574 13.1328L10.7501 14.8673C10.4669 15.823 10.1837 17.0148 10.1837 17.0148C11.9614 17.0148 13.7395 16.9915 15.517 17.0148L16.52 20.1416C18.1129 20.1416 19.7648 20.1416 21.3577 20.1416C21.3577 20.1416 19.871 15.4336 18.0421 9.97051L14.7265 0.0236092H11.9772H9.22795L5.91231 9.97051Z" fill="black"/>
<path d="M22.1836 10.0767V20.1416L26.9034 20.1416V12.059V4.03541H28.3547C30.5966 4.03541 31.7293 4.50738 32.2485 5.66373C32.5907 6.43069 32.5907 7.79942 32.2485 8.46019C31.7293 9.43954 30.8208 9.98231 29.4638 10.1239L28.6733 10.2065V12.2006V14.2065L29.8296 14.1239C34.514 13.8053 37.1098 11.5516 37.3694 7.57523C37.5582 4.67258 36.2485 2.1829 33.9594 1.05016C32.1659 0.165203 31.7647 0.106205 26.7028 0.0472088L22.1836 1.14441e-05V10.0767Z" fill="black"/>
<rect y="30.4438" width="40" height="4.83776" fill="#FF322E"/>
</svg>
