<svg width="144" height="20" viewBox="0 0 144 20" fill="none" xmlns="http://www.w3.org/2000/svg">
<g clip-path="url(#clip0_4797_116331)">
<path d="M20.6914 20H34.5061V16.2662H24.8664V11.6868H32.8587V7.94988H24.8664V3.73375H34.5642V0H20.6914V20Z" fill="#093451"/>
<path d="M51.1392 12.5889L42.0893 0H35.8574L37.7982 2.53093V20.0626H41.9701V6.92874L51.3164 20H55.3142V0H51.1392V12.5889Z" fill="#093451"/>
<path d="M14.4015 9.71026C16.2353 9.35004 17.7635 7.60219 17.7635 5.13391C17.7513 2.46828 15.8716 0 12.1093 0H0L1.87966 2.46829V20.0094H12.531C16.2965 20.0094 18.2342 17.6006 18.2342 14.5873C18.1639 12.1096 16.5043 10.0016 14.4015 9.71026ZM6.05463 3.75881H11.2871C12.6991 3.75881 13.5794 4.60454 13.5794 5.86688C13.5794 7.12921 12.6991 7.97494 11.2871 7.97494H6.05463V3.75881ZM11.4613 16.2882H6.05463V11.6868H11.4613C13.0506 11.6868 13.9309 12.711 13.9309 13.9765C13.9309 15.4205 12.9895 16.2662 11.4613 16.2662V16.2882Z" fill="#093451"/>
<path d="M116.389 12.5889H118.565V14.9413C117.439 15.8963 116.028 16.427 114.567 16.4448C111.098 16.4448 108.631 13.7353 108.631 10.0611C108.631 6.38684 111.098 3.67424 114.567 3.67424C115.458 3.6818 116.334 3.91722 117.114 4.35917C117.894 4.80112 118.555 5.43561 119.035 6.20517L122.327 4.32576C120.918 2.04855 118.445 0 114.509 0C108.983 0 104.398 3.91543 104.398 10.0016C104.398 16.0877 108.925 20 114.509 20C116.017 20.0257 117.512 19.7158 118.892 19.0917C120.272 18.4676 121.503 17.5443 122.501 16.3853V8.97729H113.567L116.389 12.5889Z" fill="#093451"/>
<path d="M97.5797 12.5889L88.5268 0H82.2949L84.2357 2.53093V20.0626H88.4107V6.92874L97.757 20H101.752V0H97.5797V12.5889Z" fill="#093451"/>
<path d="M136.313 0H128.263L130.201 2.53093L129.849 3.49256L123.617 20.0626H128.321L129.543 16.686H137.964L139.186 20.0626H143.887L136.313 0ZM130.616 12.8927L133.673 4.27565L136.729 12.8927H130.616Z" fill="#093451"/>
<path d="M79.8869 0H75.7119V20.0626H79.8869V0Z" fill="#093451"/>
<path d="M72.3621 3.43305V0H57.6641V3.73375H66.8942L57.6641 16.567V20H72.5393V16.2662H63.0738L72.3621 3.43305Z" fill="#093451"/>
</g>
<defs>
<clipPath id="clip0_4797_116331">
<rect width="144" height="20" fill="white"/>
</clipPath>
</defs>
</svg>
