<svg width="134" height="29" viewBox="0 0 134 29" fill="none" xmlns="http://www.w3.org/2000/svg">
<path d="M3.52727 4.51534H6.43949C9.10113 4.51534 10.2741 5.38034 10.2741 7.13743C10.2741 8.66439 9.10113 9.70119 6.74679 9.70119H3.52727V4.51534ZM0 21.7923H7.13761C10.8887 21.7923 14.6397 20.4142 14.6397 15.9781C14.6397 13.356 12.8522 11.343 10.3612 11.0517V10.9911C12.3993 10.3631 13.8049 8.83665 13.8049 6.53244C13.8049 2.81704 10.7216 1.40723 7.72586 1.40723H0V21.7923ZM3.52727 12.8093H6.91384C9.76888 12.8093 11.1173 13.559 11.1173 15.6914C11.1173 18.3654 8.59194 18.6842 6.77314 18.6842H3.52727V12.8093Z" fill="#1C1C1C"/>
<path fill-rule="evenodd" clip-rule="evenodd" d="M20.3031 0.925781V21.7918H16.9531V0.925781H20.3031Z" fill="#1C1C1C"/>
<path d="M25.911 14.8822C25.911 12.7227 27.3957 10.7377 29.8599 10.7377C32.3241 10.7377 33.8044 12.7231 33.8044 14.8822C33.8044 17.0412 32.3241 19.0271 29.8599 19.0271C27.3952 19.0271 25.911 17.0417 25.911 14.8822ZM22.5508 14.8822C22.5508 19.2301 25.7967 22.1352 29.8599 22.1352C33.9183 22.1352 37.169 19.2306 37.169 14.8822C37.169 10.5337 33.9187 7.625 29.8599 7.625C25.7967 7.62454 22.5508 10.5342 22.5508 14.8822Z" fill="#1C1C1C"/>
<path d="M42.0448 14.8822C42.0448 12.7227 43.5295 10.7377 45.9937 10.7377C48.4579 10.7377 49.9381 12.7231 49.9381 14.8822C49.9381 17.0412 48.4579 19.0271 45.9937 19.0271C43.5295 19.0271 42.0448 17.0417 42.0448 14.8822ZM38.6846 14.8822C38.6846 19.2301 41.9309 22.1352 45.9937 22.1352C50.052 22.1352 53.3028 19.2306 53.3028 14.8822C53.3028 10.5337 50.0525 7.625 45.9937 7.625C41.9304 7.62454 38.6846 10.5342 38.6846 14.8822Z" fill="#1C1C1C"/>
<path d="M55.3486 7.97079H58.5418V10.1326H58.5945C59.1832 8.83625 60.47 7.62305 62.71 7.62305C64.7834 7.62305 66.2154 8.45635 66.9135 10.1868C67.8931 8.43384 69.3206 7.62305 71.3323 7.62305C74.9163 7.62305 76.1777 10.2474 76.1777 13.5591V21.7924H72.8175V13.961C72.8175 12.2351 72.3168 10.7376 70.3269 10.7376C68.2276 10.7376 67.441 12.5218 67.441 14.3042V21.7919H64.0853V13.5586C64.0853 11.8552 63.4131 10.7376 61.7881 10.7376C59.5785 10.7376 58.7088 12.4024 58.7088 14.2477V21.7919H55.3486V7.97079Z" fill="#1C1C1C"/>
<path d="M90.0455 14.8824C90.0455 17.0442 88.5653 19.0273 86.0966 19.0273C83.6319 19.0273 82.1477 17.0442 82.1477 14.8824C82.1477 12.7229 83.6319 10.7329 86.0966 10.7329C88.5653 10.7329 90.0455 12.7229 90.0455 14.8824ZM78.9018 21.7918H82.095V19.7201H82.1477C83.1312 21.3848 84.8929 22.135 86.7724 22.135C90.9102 22.135 93.4053 18.9681 93.4053 14.882C93.4053 10.7936 90.7436 7.62481 86.9091 7.62481C84.3917 7.62481 83.0437 8.83112 82.3451 9.73011H82.2616V0.925781H78.9014L78.9018 21.7918Z" fill="#1C1C1C"/>
<path d="M98.285 13.4999C98.5356 11.5099 99.7697 10.2159 101.755 10.2159C103.855 10.2159 105.142 11.4833 105.173 13.4999H98.285ZM108.533 16.0908V15.1422C108.533 10.3312 105.985 7.625 102.234 7.625C98.1667 7.625 94.9248 10.5342 94.9248 14.8822C94.9248 19.2301 98.1667 22.1352 102.234 22.1352C104.356 22.1352 106.349 21.3584 107.913 19.3748L105.506 17.507C104.667 18.5668 103.573 19.3748 101.895 19.3748C100.02 19.3748 98.5043 18.135 98.285 16.0908H108.533Z" fill="#1C1C1C"/>
<path d="M110.72 7.97079H114.08V10.1597H114.138C114.867 8.57624 116.347 7.62305 118.112 7.62305C118.534 7.62305 118.925 7.71125 119.316 7.82839V11.1671C118.758 11.0247 118.222 10.9094 117.69 10.9094C114.528 10.9094 114.08 13.6468 114.08 14.3969V21.7924H110.72L110.72 7.97079Z" fill="#1C1C1C"/>
<path d="M126.832 10.7376C129.265 10.7376 130.806 12.4024 130.806 14.7984C130.806 17.0981 129.295 18.8552 126.805 18.8552C124.538 18.8552 122.856 17.0416 122.856 14.8526C122.856 12.4024 124.477 10.7376 126.832 10.7376ZM130.806 7.97079V10.0444H130.754C129.77 8.37274 128.005 7.62305 126.129 7.62305C121.987 7.62305 119.496 10.7918 119.496 14.8825C119.496 18.7945 122.158 21.9637 126.186 21.9637C127.868 21.9637 129.603 21.3041 130.588 19.9512H130.635V20.9609C130.635 23.6937 129.634 25.596 126.384 25.596C124.508 25.596 123.106 24.8729 121.762 23.5991L119.751 26.4265C121.648 28.1611 123.919 28.7036 126.414 28.7036C131.65 28.7036 134 25.5326 134 20.5539V7.97079H130.806Z" fill="#1C1C1C"/>
</svg>
