<svg width="171" height="24" viewBox="0 0 171 24" fill="none" xmlns="http://www.w3.org/2000/svg">
<g clip-path="url(#clip0_5869_125235)">
<path d="M41.4074 10.0523L41.1132 11.4711H41.0397C40.6719 10.6775 39.6422 9.57129 37.3622 9.57129C33.6848 9.57129 29.9338 12.3609 29.1003 16.7617C28.3893 20.6094 30.2771 24.0001 34.6409 24.0001C36.2345 24.0001 38.0732 23.3989 39.0293 22.0763H39.1029L38.8332 23.5192H42.9029L45.4526 10.0523H41.4074ZM40.0835 16.7617C39.8138 18.0843 38.539 20.2246 35.9893 20.2246C33.4887 20.2246 32.9738 18.0603 33.1945 16.8098C33.4887 15.2707 34.8861 13.3468 37.2642 13.3468C39.5932 13.3709 40.3777 15.1745 40.0835 16.7617Z" fill="#090909"/>
<path d="M47.7577 10.0523H51.5822L51.3125 11.4711H51.3861C51.8764 10.8218 52.8325 9.57129 55.1861 9.57129L54.4261 13.6595C52.4893 13.6835 51.0919 14.0683 50.7241 16.1364L49.3267 23.5192H45.208L47.7577 10.0523Z" fill="#090909"/>
<path d="M57.9562 4.78564H62.0749L60.1381 14.9339H60.2117L64.9678 10.0522H69.7975L63.5214 15.968L67.1252 23.5191H62.4672L59.8194 17.0261H59.7459L58.5446 23.5191H54.4014L57.9562 4.78564Z" fill="#090909"/>
<path d="M76.3918 9.57129C72.224 9.57129 68.5221 13.0823 67.8357 16.8338C67.0757 20.8258 69.8215 23.9761 73.7686 23.9761C75.166 23.9761 76.6124 23.5673 77.8873 22.7496C79.1866 21.9801 80.3879 20.8258 81.3195 19.3108H77.1273C76.4408 20.0082 75.6563 20.5613 74.3815 20.5613C72.7879 20.5613 71.5866 19.6234 71.6602 18.0122H81.9569C82.0795 17.6995 82.1531 17.4591 82.2511 16.9541C83.0357 12.8418 80.584 9.57129 76.3918 9.57129ZM72.224 15.2947C72.5427 14.5011 73.6705 12.9861 75.8034 12.9861C77.9363 12.9861 78.4511 14.5011 78.4511 15.2947H72.224Z" fill="#090909"/>
<path d="M23.6581 4.78564L16.4013 15.463H16.3523V4.78564H12.8465L0 23.5191H4.97677L12.1845 12.8418H12.2581V23.5191H15.7884L22.9961 12.8418H23.0697V23.5191H27.1884V4.78564H23.6581Z" fill="#090909"/>
<path d="M92.6706 10.052H90.0719L90.8319 6.06006H87.228L86.9338 7.59914C86.6151 9.35465 85.4874 9.88371 83.9919 10.052H83.9674L83.3545 13.1062H85.3893L83.428 23.519H87.5222L89.4835 13.1062H92.1068L92.6706 10.052Z" fill="#090909"/>
<path d="M156.217 18.4208C154.869 21.4749 151.657 23.976 147.955 23.976C143.788 23.976 141.213 20.7535 141.949 16.7375C142.709 12.7936 146.435 9.57114 150.554 9.57114C154.182 9.57114 156.683 11.9519 156.757 15.2465H152.589C152.319 14.3086 151.706 13.3467 149.966 13.3467C148.029 13.2505 146.435 14.8136 146.068 16.7615C145.7 18.7335 146.729 20.2004 148.691 20.2004C150.382 20.2004 151.412 19.2385 152 18.3968H156.217V18.4208ZM122.189 0L114.197 4.78557H116.452L109.22 15.4629H109.146V4.78557H105.616L98.3837 15.4629H98.3101V4.78557H94.1914V23.519H97.7708L105.003 12.8417H105.077V23.519H108.607L121.404 4.78557H123.439L122.189 0ZM129.985 23.519H125.915L126.185 22.0762H126.111C125.155 23.3988 123.317 24 121.723 24C117.359 24 115.471 20.6333 116.182 16.7615C116.991 12.3607 120.767 9.57114 124.444 9.57114C126.7 9.57114 127.754 10.6533 128.122 11.4709H128.195L128.489 10.0521H132.559L129.985 23.519ZM123.071 20.2485C125.621 20.2485 126.896 18.0842 127.166 16.7856C127.46 15.1743 126.675 13.3707 124.346 13.3707C121.993 13.3707 120.571 15.2946 120.277 16.8337C120.056 18.0842 120.571 20.2485 123.071 20.2485ZM142.807 10.0521H140.233L140.993 6.06012H137.389L137.095 7.5992C136.776 9.35471 135.648 9.88377 134.153 10.0521H134.104L133.515 13.1062H135.55L133.589 23.519H137.683L139.644 13.1062H142.268L142.807 10.0521ZM160.091 4.78557H164.185L162.935 11.4709H163.008C163.891 10.2204 165.068 9.57114 166.882 9.57114C168.181 9.57114 169.677 10.0521 170.363 11.0862C171.246 12.4088 171.148 13.5872 170.682 15.992L169.284 23.519H165.19L166.563 16.1844C166.686 15.5351 167.078 13.3467 164.896 13.3467C162.591 13.3467 162.199 15.3667 162.077 16.0401L160.679 23.495H156.585L160.091 4.78557Z" fill="#00AC4E"/>
</g>
<defs>
<clipPath id="clip0_5869_125235">
<rect width="171" height="24" fill="white"/>
</clipPath>
</defs>
</svg>
