<svg width="122" height="28" viewBox="0 0 122 28" fill="none" xmlns="http://www.w3.org/2000/svg">
<g clip-path="url(#clip0_5869_125288)">
<path d="M67.3921 0.866699H65.0596V26.4317H67.3921V0.866699Z" fill="#FF0000"/>
<path d="M97.1807 0.866699H104.622V2.9976H102.091V26.4317H99.7485V2.9976H97.1807V0.866699Z" fill="#FF0000"/>
<path d="M62.9284 0.866699V26.4317H60.4855L56.993 10.9061V26.4317H54.7012V0.866699H56.8091L60.6366 17.8028V0.866699H62.9284Z" fill="#FF0000"/>
<path d="M12.2105 0.866699V26.4317H9.91862V4.51829L7.09034 26.4317H5.18192L2.39915 4.51829V26.4317H0.0927734V0.866699H3.99484L6.22957 16.2793L8.33649 0.866699H12.2105Z" fill="#FF0000"/>
<path d="M40.6168 26.4396C42.2416 24.2354 43.2219 21.6252 43.4485 18.8989C43.6752 16.1726 43.1395 13.4371 41.9008 10.9961C40.6621 8.55522 38.7691 6.50453 36.4319 5.07191C34.0948 3.6393 31.4051 2.88086 28.6617 2.88086C25.9184 2.88086 23.2287 3.6393 20.8915 5.07191C18.5544 6.50453 16.6614 8.55522 15.4227 10.9961C14.184 13.4371 13.6483 16.1726 13.875 18.8989C14.1016 21.6252 15.0819 24.2354 16.7067 26.4396H19.7925C18.0579 24.6929 16.8804 22.4735 16.4083 20.0607C15.9362 17.648 16.1906 15.1499 17.1395 12.8811C18.0885 10.6123 19.6895 8.67421 21.7409 7.31098C23.7923 5.94775 26.2024 5.22032 28.6676 5.22032C31.1328 5.22032 33.5428 5.94775 35.5942 7.31098C37.6457 8.67421 39.2466 10.6123 40.1956 12.8811C41.1445 15.1499 41.399 17.648 40.9269 20.0607C40.4548 22.4735 39.2772 24.6929 37.5426 26.4396H40.6168Z" fill="#FF0000"/>
<path d="M113.065 26.4317H110.785L110.181 20.6733H106.769L106.217 26.4317H103.894L106.517 0.868652H110.074L113.065 26.4317ZM109.966 18.3648L108.417 4.26824L106.986 18.3648H109.968H109.966Z" fill="#FF0000"/>
<path d="M85.2069 23.1849C85.246 23.3979 85.2376 23.6168 85.1824 23.8262C85.1273 24.0357 85.0266 24.2304 84.8876 24.3967C84.7485 24.5631 84.5745 24.6969 84.3779 24.7887C84.1813 24.8805 83.9668 24.9281 83.7496 24.9281C83.5325 24.9281 83.318 24.8805 83.1214 24.7887C82.9247 24.6969 82.7508 24.5631 82.6117 24.3967C82.4727 24.2304 82.372 24.0357 82.3168 23.8262C82.2617 23.6168 82.2533 23.3979 82.2924 23.1849V3.87456C82.2533 3.66158 82.2617 3.44263 82.3168 3.23321C82.372 3.0238 82.4727 2.82904 82.6117 2.66273C82.7508 2.49641 82.9247 2.36261 83.1214 2.27078C83.318 2.17896 83.5325 2.13136 83.7496 2.13136C83.9668 2.13136 84.1813 2.17896 84.3779 2.27078C84.5745 2.36261 84.7485 2.49641 84.8876 2.66273C85.0266 2.82904 85.1273 3.0238 85.1824 3.23321C85.2376 3.44263 85.246 3.66158 85.2069 3.87456L85.2011 4.79759V9.61746H87.5462V5.90311V4.82849C87.5297 1.64228 86.2797 0.122559 83.6732 0.122559C81.3493 0.122559 79.8389 1.76394 79.8389 4.2878V5.22628V21.2288V22.2648C79.8389 25.5408 81.1131 27.1377 83.7283 27.1377C86.3436 27.1377 87.55 25.5697 87.55 22.1972V12.8964H83.2365V15.1354H85.1972V22.3372L85.2069 23.1849Z" fill="#FF0000"/>
<path d="M94.8145 22.5725V15.9259L89.4727 11.9441V4.51544C89.4727 1.59572 90.7905 0.103027 93.3699 0.103027C95.9909 0.103027 97.1829 1.58413 97.1974 4.86689L97.2042 5.88551V9.65489H94.8145V4.59944L94.8097 3.8753C94.8503 3.66348 94.8435 3.44533 94.7898 3.23642C94.7361 3.02752 94.6368 2.83302 94.499 2.66682C94.3611 2.50062 94.1882 2.36682 93.9925 2.27497C93.7969 2.18313 93.5832 2.1355 93.367 2.1355C93.1507 2.1355 92.9371 2.18313 92.7414 2.27497C92.5457 2.36682 92.3728 2.50062 92.235 2.66682C92.0972 2.83302 91.9979 3.02752 91.9442 3.23642C91.8904 3.44533 91.8837 3.66348 91.9243 3.8753V10.8328L97.2032 14.8098V22.4963C97.2032 25.501 95.8612 27.1105 93.3544 27.1105C90.8147 27.1105 89.494 25.5936 89.4814 22.6623V21.6514V16.6481H91.9252V23.1856C91.8846 23.3975 91.8914 23.6156 91.9451 23.8245C91.9988 24.0334 92.0981 24.2279 92.236 24.3941C92.3738 24.5603 92.5467 24.6941 92.7424 24.786C92.9381 24.8778 93.1517 24.9254 93.3679 24.9254C93.5842 24.9254 93.7978 24.8778 93.9935 24.786C94.1892 24.6941 94.3621 24.5603 94.4999 24.3941C94.6377 24.2279 94.737 24.0334 94.7908 23.8245C94.8445 23.6156 94.8513 23.3975 94.8106 23.1856L94.8145 22.5725Z" fill="#FF0000"/>
<path d="M53.2834 26.4317H50.946C50.6225 25.5519 50.4617 24.6209 50.4716 23.6838L50.4522 22.3765L50.4454 21.7122V16.7215C50.4705 16.5281 50.4533 16.3317 50.3951 16.1456C50.3368 15.9595 50.2389 15.7881 50.108 15.6433C49.9772 15.4985 49.8164 15.3836 49.6368 15.3066C49.4572 15.2295 49.2631 15.1921 49.0676 15.1969H47.3993V26.4317H45.1113V0.868652H48.0974C51.4515 0.868652 52.745 2.09196 52.745 5.36217V10.1637C52.745 12.3149 52.3849 13.2167 50.6962 13.8375C50.7204 13.8442 50.7437 13.8549 50.7669 13.8616C52.3616 14.3251 52.7189 14.9237 52.7373 16.9455L52.745 17.8743V22.5397C52.6901 23.8587 52.8724 25.1768 53.2834 26.4317ZM47.3993 2.87982V13.0042H48.2185C48.5171 13.0565 48.8239 13.0373 49.1136 12.9483C49.4034 12.8593 49.6678 12.703 49.8852 12.4922C50.1026 12.2815 50.2667 12.0223 50.3641 11.736C50.4615 11.4497 50.4894 11.1445 50.4454 10.8453V5.63155C50.4454 3.53251 49.9613 2.87596 48.4005 2.87596H47.3993V2.87982Z" fill="#FF0000"/>
<path d="M121.846 26.4317H119.507C119.183 25.552 119.022 24.6208 119.033 23.6838L119.014 22.3765L119.005 21.7132V16.7215C119.03 16.5282 119.013 16.3318 118.955 16.1458C118.897 15.9598 118.799 15.7885 118.668 15.6437C118.537 15.4989 118.377 15.384 118.197 15.3069C118.018 15.2298 117.824 15.1923 117.628 15.1969H115.962V26.4317H113.673V0.868652H116.66C120.014 0.868652 121.308 2.09196 121.308 5.36217V10.1637C121.308 12.3149 120.946 13.2167 119.262 13.8375C119.284 13.8442 119.307 13.8549 119.332 13.8616C120.926 14.3251 121.284 14.9237 121.303 16.9455L121.309 17.8743V22.5397C121.253 23.8586 121.435 25.1768 121.846 26.4317ZM115.962 2.87982V13.0042H116.784C117.082 13.0554 117.388 13.0355 117.677 12.946C117.966 12.8565 118.23 12.7001 118.446 12.4895C118.663 12.2789 118.827 12.0201 118.924 11.7343C119.021 11.4485 119.049 11.1439 119.005 10.8453V5.63155C119.005 3.53251 118.521 2.87596 116.96 2.87596H115.962V2.87982Z" fill="#FF0000"/>
<path d="M77.7146 0.866699V26.4317H75.2726L71.7801 10.9061V26.4317H69.4883V0.866699H71.5962L75.4227 17.8028V0.866699H77.7146Z" fill="#FF0000"/>
</g>
<defs>
<clipPath id="clip0_5869_125288">
<rect width="122" height="28" fill="white"/>
</clipPath>
</defs>
</svg>
