<svg width="113" height="32" viewBox="0 0 113 32" fill="none" xmlns="http://www.w3.org/2000/svg">
<g clip-path="url(#clip0_4797_116253)">
<path fill-rule="evenodd" clip-rule="evenodd" d="M51.7022 19.9952C50.7426 20.2925 50.2997 21.4074 50.8164 22.225C50.964 22.448 51.2593 22.7453 51.4807 22.8196C51.7022 22.8939 51.7022 22.8939 52.1451 22.8939C52.5142 22.8939 52.588 22.8939 52.8095 22.8196C53.1047 22.6709 53.4 22.3736 53.5476 22.0763C53.9167 21.3331 53.5476 20.4412 52.8095 20.0695C52.588 19.9209 52.5142 19.9209 52.2189 19.9209C51.9236 19.9209 51.8498 19.9209 51.7022 19.9952ZM45.2801 22.448C45.2063 22.6709 45.2063 22.8939 45.2063 23.1912V23.7115H44.6896H44.1729V24.8264V25.9412H44.6896H45.2063V28.6169V31.2927H46.6088H48.0113V28.6169V25.9412H48.971H49.9306V24.8264V23.7115H48.971H48.0113V23.4885C48.0852 22.9682 48.3066 22.5966 48.7495 22.5223C49.0448 22.448 49.4877 22.448 49.783 22.5966C49.9306 22.6709 50.0044 22.6709 50.0044 22.6709C50.0044 22.6709 50.0044 22.1507 50.0044 21.4817V20.2925C48.0176 19.6257 45.882 20.2661 45.2801 22.448ZM58.9363 23.5628C58.3457 23.7115 57.9028 24.0088 57.6076 24.3804L57.4599 24.6034V24.1574V23.7115H56.0574H54.6549V27.5021V31.2927H56.0574H57.4599V29.2115C57.4599 28.0223 57.4599 27.0561 57.4599 26.9075C57.5337 26.6102 57.6814 26.3129 57.829 26.1642C58.1981 25.8669 58.8625 25.9412 59.1577 26.3129C59.3792 26.6102 59.3792 26.6102 59.3792 28.9886V31.2183H60.7817H62.1842V28.6913C62.1842 26.0156 62.1842 25.7183 62.0366 25.198C61.889 24.752 61.7413 24.3804 61.3722 24.0831C60.7264 23.4329 59.8078 23.3435 58.9363 23.5628ZM65.9489 23.4885C65.506 23.5628 64.8416 23.7858 64.4726 24.0831C63.6606 24.6777 63.1438 25.5696 62.9224 26.6845C62.8486 27.1304 62.8486 27.948 62.9224 28.394C63.07 29.0629 63.2915 29.7318 63.6606 30.1778C64.1773 30.8467 64.8416 31.2927 65.6536 31.4413C66.0965 31.5156 66.8347 31.5156 67.2038 31.367C67.6467 31.2183 67.942 31.0697 68.311 30.7724L68.6063 30.4751V30.8467V31.2183H70.0088H71.4114V27.4277V23.6372H70.0088H68.6063V24.0088V24.3804L68.3849 24.3061C68.0158 23.9345 67.4991 23.6372 66.9085 23.5628C66.6871 23.4885 66.1703 23.4885 65.9489 23.4885ZM76.6524 23.5628C76.1357 23.6372 75.6189 24.0088 75.3237 24.3804L75.176 24.5291V24.0831V23.6372H73.7735H72.371V27.4277V31.2183H73.7735H75.176V29.0629C75.176 26.7588 75.176 26.7588 75.3237 26.3872C75.4713 26.0899 75.7666 25.9412 76.0618 25.9412C76.3571 25.9412 76.5047 26.0156 76.7262 26.1642C77.0215 26.4615 77.0215 26.3872 77.0215 28.9142V31.144H78.424H79.8265V28.394C79.8265 25.6439 79.8265 25.6439 79.7527 25.3466C79.6789 25.198 79.6051 24.9007 79.5312 24.6777C79.3836 24.3804 79.3098 24.3061 79.0883 24.0831C78.4282 23.4184 77.5557 23.303 76.6524 23.5628ZM83.9603 23.5628C82.7054 23.7858 81.7458 24.3804 81.1552 25.421C81.0076 25.7183 80.8599 26.0899 80.7123 26.4615C80.6385 26.8331 80.6385 26.9075 80.6385 27.5021C80.6385 28.171 80.6385 28.394 80.8599 28.9142C81.3028 30.1778 82.3363 31.144 83.7388 31.4413C83.9603 31.5156 84.1817 31.5156 84.6984 31.5156C85.4366 31.5156 85.7319 31.4413 86.2486 31.2183L86.5439 31.0697V29.8061V28.5426L86.3224 28.6913C85.9533 28.9142 85.7319 28.9886 85.289 28.9886C84.8461 28.9886 84.6246 28.9886 84.3293 28.8399C84.0341 28.6913 83.8126 28.4683 83.665 28.171C83.5912 27.948 83.5912 27.948 83.5912 27.5764C83.5912 27.2791 83.5912 27.2048 83.665 26.9818C83.8864 26.3872 84.4032 26.0899 85.1413 26.0156C85.6581 26.0156 85.8795 26.0156 86.6177 26.3872C86.6177 26.3872 86.6177 25.7926 86.6177 25.1237V23.8601L86.3962 23.7858C85.5842 23.4885 84.6984 23.4142 83.9603 23.5628ZM90.3085 23.5628C88.1678 23.9345 86.8391 25.7926 86.9868 27.948C87.0606 28.6913 87.282 29.3602 87.6511 29.8805C88.1678 30.698 88.9798 31.2183 90.0133 31.4413C90.4562 31.5156 91.6372 31.5156 92.154 31.4413C92.8921 31.2927 93.5565 30.921 94.0732 30.4007C94.2947 30.1778 94.6637 29.6575 94.6637 29.6575C94.6637 29.6575 94.147 29.4345 93.4827 29.2115L92.3016 28.7656L92.154 28.9142C91.9325 29.1372 91.7849 29.2115 91.4896 29.2859C90.6776 29.5088 89.8656 29.0629 89.718 28.3196V28.171H92.3016H94.8852V27.5021C94.8852 27.0561 94.8852 26.7588 94.8114 26.6102C94.6637 25.7183 94.2947 25.1237 93.7779 24.5291C93.2612 24.0088 92.6707 23.7115 91.8587 23.5628C91.5634 23.4885 90.6776 23.4885 90.3085 23.5628ZM50.7426 27.5021V31.2927H52.1451H53.5476V27.5021V23.7115H52.1451H50.7426V27.5021ZM91.4158 25.6439C91.6372 25.7183 91.7111 25.7926 91.9325 25.9412C92.0801 26.0899 92.2278 26.2385 92.2278 26.4615V26.6102H90.9729C89.5704 26.6102 89.6442 26.6102 89.7918 26.3129C90.0133 25.7926 90.6776 25.4953 91.4158 25.6439ZM67.5729 26.0156C67.942 26.0899 68.3849 26.4615 68.5325 26.8331C68.9016 27.6507 68.5325 28.6169 67.6467 28.9142C67.3514 28.9886 66.9085 28.9886 66.6132 28.9142C66.1703 28.7656 65.7274 28.394 65.6536 27.948C65.5798 27.725 65.5798 27.6507 65.5798 27.4277C65.5798 27.1304 65.5798 27.0561 65.7274 26.8331C66.0227 26.1642 66.7609 25.8669 67.5729 26.0156Z" fill="#232A31"/>
<path d="M44.1729 18.7318L44.0252 -0.592773H48.7495V6.54244L49.1186 6.24514C49.7092 5.57622 50.3735 5.27891 51.2593 5.05594C51.5546 4.98161 52.588 4.90729 52.9571 4.98161C53.9167 5.13027 54.7287 5.50189 55.3931 6.17082C56.2051 6.91407 56.648 7.95462 56.7956 9.29247C56.8694 9.6641 56.8694 10.4074 56.8694 14.1979V18.6574H52.1451V10.8533C51.9975 9.88708 51.4808 9.44113 50.6688 9.3668C50.0782 9.29248 49.5615 9.51545 49.2662 10.0357C49.0448 10.333 48.971 10.7047 48.8972 11.0763V18.7318H44.1729Z" fill="#6001D2"/>
<path d="M89.4227 11.5222C89.4227 11.5222 94.2209 -0.146821 94.3685 -0.444123L94.4423 -0.592773H100.052C100.052 -0.592773 98.9451 2.15726 97.5426 5.50189L95.0328 11.5222H89.4227Z" fill="#6001D2"/>
<path fill-rule="evenodd" clip-rule="evenodd" d="M33.8385 5.05594C32.805 5.20459 31.9931 5.50189 31.1811 6.02217C29.5571 7.06272 28.5236 8.84652 28.2284 10.9276C28.0807 11.8939 28.1546 13.0831 28.376 13.975C28.9666 16.279 30.5167 18.0628 32.5098 18.7318C33.2479 18.9547 33.5432 19.0291 34.429 19.0291C35.0934 19.0291 35.3148 19.0291 35.5363 18.9547C36.4959 18.7318 37.1602 18.3601 37.7508 17.7655L38.0461 17.4682V18.6574H42.6227V5.27892H38.0461V6.46812L37.8246 6.24514C37.3079 5.65054 36.5697 5.27891 35.6101 5.05594C35.3148 4.98161 35.1672 4.98161 34.5767 4.98161C34.2076 5.05594 33.9123 5.05594 33.8385 5.05594ZM35.4625 14.6439C36.8893 14.6439 38.0461 13.4792 38.0461 12.0425C38.0461 10.6058 36.8893 9.44113 35.4625 9.44113C34.0356 9.44113 32.8789 10.6058 32.8789 12.0425C32.8789 13.4792 34.0356 14.6439 35.4625 14.6439Z" fill="#6001D2"/>
<path fill-rule="evenodd" clip-rule="evenodd" d="M60.4126 6.54244C61.3723 5.79919 62.701 5.20459 63.9558 5.05594C64.4726 4.98161 65.506 4.98161 66.0227 5.05594C67.3514 5.20459 68.5325 5.72487 69.5659 6.54244C69.935 6.83974 70.5256 7.50867 70.8208 7.8803C71.4852 8.7722 71.9281 9.88707 72.0757 11.002C72.1495 11.5222 72.1495 12.4885 72.0757 13.0831C71.7805 15.3871 70.4518 17.2453 68.3849 18.2858C67.3514 18.8061 66.3918 19.0291 65.0631 19.0291C64.3249 19.0291 63.7344 18.9547 63.1439 18.8061C60.3388 18.0628 58.3458 15.9074 57.9767 13.0831C57.6076 10.556 58.5672 8.10327 60.4126 6.54244ZM67.5729 12.0425C67.5729 13.4792 66.4162 14.6439 64.9893 14.6439C63.5624 14.6439 62.4057 13.4792 62.4057 12.0425C62.4057 10.6058 63.5624 9.44113 64.9893 9.44113C66.4162 9.44113 67.5729 10.6058 67.5729 12.0425Z" fill="#6001D2"/>
<path fill-rule="evenodd" clip-rule="evenodd" d="M79.0145 5.05594C77.7596 5.20459 76.5048 5.72487 75.5451 6.54244C75.176 6.83974 74.5117 7.50867 74.2902 7.8803C73.6259 8.7722 73.2568 9.88707 73.0354 11.002C72.9615 11.5222 72.9615 12.5628 73.0354 13.0831C73.4783 16.0561 75.6189 18.3601 78.5716 18.9547C79.1622 19.1034 79.4574 19.1034 80.1218 19.1034C81.3767 19.1034 82.4839 18.8804 83.5174 18.2858C86.2486 16.8736 87.725 13.752 87.0606 10.556C86.4701 7.583 84.1079 5.42756 81.0814 5.05594C80.5647 4.98161 79.5313 4.98161 79.0145 5.05594ZM80.1218 14.6439C81.5487 14.6439 82.7054 13.4792 82.7054 12.0425C82.7054 10.6058 81.5487 9.44113 80.1218 9.44113C78.6949 9.44113 77.5382 10.6058 77.5382 12.0425C77.5382 13.4792 78.6949 14.6439 80.1218 14.6439Z" fill="#6001D2"/>
<path d="M15.7533 12.1168C14.2031 8.40057 12.9482 5.35324 12.9482 5.35324C12.9482 5.35324 14.1293 5.35324 15.5318 5.42756H18.1154L19.5918 9.29247C20.4776 11.3736 21.1419 13.1574 21.1419 13.1574C21.1419 13.1574 21.8063 11.3736 22.4706 9.29247L24.0208 5.42756H26.5306C28.5236 5.35324 29.0404 5.42756 29.0404 5.42756C29.0404 5.47459 28.3606 7.12855 27.3377 9.61743L27.3372 9.61878C26.7436 11.063 26.0345 12.7883 25.2757 14.6439L21.511 23.7859H19.0012C18.4451 23.7859 17.9354 23.7976 17.5227 23.8071L17.5219 23.8071C16.8946 23.8215 16.4915 23.8307 16.4915 23.7859C16.4915 23.7116 16.9344 22.671 17.5249 21.3332C18.1154 19.9953 18.5583 18.8804 18.5583 18.8804C18.5583 18.8804 17.3034 15.8331 15.7533 12.1168Z" fill="#6001D2"/>
<path d="M90.6038 12.7114C89.2013 12.8601 88.1679 13.9006 87.8726 15.2385C87.7988 15.6101 87.7988 16.279 87.8726 16.6507C88.1679 17.8399 89.0537 18.6574 90.2347 18.9547C90.3011 18.9547 90.3973 18.9698 90.5032 18.9863C90.6329 19.0065 90.7772 19.0291 90.8991 19.0291C91.7849 19.0291 92.5231 18.7318 93.1136 18.1372C93.778 17.4682 93.9994 16.7993 93.9994 15.9074C93.9994 14.7925 93.4827 13.8263 92.5969 13.306C92.0063 12.7858 91.1944 12.6371 90.6038 12.7114Z" fill="#6001D2"/>
</g>
<defs>
<clipPath id="clip0_4797_116253">
<rect width="113" height="32" fill="white"/>
</clipPath>
</defs>
</svg>
