<svg width="62" height="51" viewBox="0 0 62 51" fill="none" xmlns="http://www.w3.org/2000/svg">
<path d="M16.3322 9.6666V12.2603V9.6666ZM55.366 9.6666V7.07285V9.6666ZM58.6469 14.2186L56.1859 13.3983V13.3983L58.6469 14.2186ZM54.6639 26.1673L52.2033 25.347L54.6639 26.1673ZM48.7903 30.8624L48.5323 28.2814L48.7903 30.8624ZM24.4151 33.2998L24.6731 35.8808L24.4151 33.2998ZM13.007 14.075L10.513 14.7876L13.007 14.075ZM17.0763 28.3177L19.5702 27.605L17.0763 28.3177ZM12.7034 22.4531C13.0803 23.835 14.5062 24.6498 15.8882 24.2729C17.2702 23.8963 18.085 22.4704 17.7081 21.0881L12.7034 22.4531ZM11.4083 7.84675L8.90593 8.52922L11.4083 7.84675ZM4.73524 2.75L4.73528 5.34375L4.73524 2.75ZM3.10153 0.156285C1.66905 0.156285 0.507778 1.31759 0.507813 2.75007C0.507847 4.18255 1.66912 5.34378 3.1016 5.34378L3.10153 0.156285ZM16.3322 12.2603H55.366V7.07285H16.3322V12.2603ZM56.1859 13.3983L52.2033 25.347L57.1245 26.9873L61.1075 15.0388L56.1859 13.3983ZM48.5323 28.2814L24.157 30.7189L24.6731 35.8808L49.0486 33.4433L48.5323 28.2814ZM10.513 14.7876L14.5823 29.0301L19.5702 27.605L15.5009 13.3624L10.513 14.7876ZM52.2033 25.347C51.6645 26.9628 50.2272 28.112 48.5323 28.2814L49.0486 33.4433C52.7774 33.0702 55.9394 30.5425 57.1245 26.9873L52.2033 25.347ZM55.366 12.2603C55.956 12.2603 56.3727 12.8385 56.1859 13.3983L61.1075 15.0388C62.4137 11.1199 59.497 7.07285 55.366 7.07285V12.2603ZM16.3322 7.07285C12.3113 7.07285 9.40839 10.9214 10.513 14.7876L15.5009 13.3624C15.3431 12.8101 15.7578 12.2603 16.3322 12.2603V7.07285ZM24.157 30.7189C22.0762 30.927 20.1447 29.6156 19.5702 27.605L14.5823 29.0301C15.8462 33.4537 20.0953 36.3386 24.6731 35.8808L24.157 30.7189ZM46.3307 45.1145C45.8531 45.1145 45.4661 44.7275 45.4661 44.2499H40.2786C40.2786 47.5924 42.9883 50.302 46.3307 50.302V45.1145ZM45.4661 44.2499C45.4661 43.7723 45.8531 43.3853 46.3307 43.3853V38.1978C42.9883 38.1978 40.2786 40.9074 40.2786 44.2499H45.4661ZM46.3307 43.3853C46.8083 43.3853 47.1953 43.7723 47.1953 44.2499H52.3828C52.3828 40.9074 49.6732 38.1978 46.3307 38.1978V43.3853ZM47.1953 44.2499C47.1953 44.7275 46.8083 45.1145 46.3307 45.1145V50.302C49.6732 50.302 52.3828 47.5924 52.3828 44.2499H47.1953ZM25.5807 45.1145C25.1032 45.1145 24.7161 44.7275 24.7161 44.2499H19.5286C19.5286 47.5924 22.2383 50.302 25.5807 50.302V45.1145ZM24.7161 44.2499C24.7161 43.7723 25.1032 43.3853 25.5807 43.3853V38.1978C22.2383 38.1978 19.5286 40.9074 19.5286 44.2499H24.7161ZM25.5807 43.3853C26.0583 43.3853 26.4453 43.7723 26.4453 44.2499H31.6328C31.6328 40.9074 28.9232 38.1978 25.5807 38.1978V43.3853ZM26.4453 44.2499C26.4453 44.7275 26.0583 45.1145 25.5807 45.1145V50.302C28.9232 50.302 31.6328 47.5924 31.6328 44.2499H26.4453ZM17.7081 21.0881L13.9107 7.16429L8.90593 8.52922L12.7034 22.4531L17.7081 21.0881ZM4.73521 0.15625L3.10153 0.156285L3.1016 5.34378L4.73528 5.34375L4.73521 0.15625ZM13.9107 7.16429C12.7822 3.02663 9.02399 0.156215 4.73521 0.15625L4.73528 5.34375C6.68471 5.34371 8.39299 6.64848 8.90593 8.52922L13.9107 7.16429Z" fill="white"/>
</svg>
